<svg width="42" height="43" viewBox="0 0 42 43" fill="none" xmlns="http://www.w3.org/2000/svg">
<path d="M36.1863 23.1411C36.2654 22.4822 36.3181 21.7969 36.3181 21.0852C36.3181 20.3736 36.2654 19.6883 36.1599 19.0293L40.6144 15.5501C41.0098 15.2338 41.1152 14.6539 40.878 14.2059L36.6607 6.90476C36.3972 6.43032 35.8436 6.27217 35.3692 6.43032L30.124 8.53894C29.017 7.69549 27.8572 7.01019 26.5657 6.48303L25.775 0.895187C25.6959 0.368032 25.2478 -0.000976562 24.7207 -0.000976562L16.2862 -0.000976562C15.759 -0.000976562 15.3373 0.368032 15.2582 0.895187L14.4675 6.48303C13.176 7.01019 11.9899 7.72185 10.9092 8.53894L5.664 6.43032C5.18956 6.24581 4.63605 6.43032 4.37247 6.90476L0.155226 14.2059C-0.108351 14.6803 -0.00291979 15.2338 0.418805 15.5501L4.87327 19.0293C4.76784 19.6883 4.68876 20.3999 4.68876 21.0852C4.68876 21.7705 4.74148 22.4822 4.84691 23.1411L0.392446 26.6204C-0.00292041 26.9367 -0.108351 27.5165 0.128869 27.9646L4.34611 35.2657C4.60969 35.7401 5.1632 35.8983 5.63764 35.7401L10.8828 33.6315C11.9899 34.475 13.1496 35.1603 14.4411 35.6874L15.2319 41.2753C15.3373 41.8024 15.759 42.1714 16.2862 42.1714L24.7207 42.1714C25.2478 42.1714 25.6959 41.8024 25.7486 41.2753L26.5394 35.6874C27.8309 35.1603 29.017 34.4486 30.0977 33.6315L35.3429 35.7401C35.8173 35.9246 36.3708 35.7401 36.6344 35.2657L40.8516 27.9646C41.1152 27.4902 41.0098 26.9367 40.588 26.6204L36.1863 23.1411ZM20.5034 28.9926C16.1544 28.9926 12.5961 25.4343 12.5961 21.0852C12.5961 16.7362 16.1544 13.1779 20.5034 13.1779C24.8525 13.1779 28.4108 16.7362 28.4108 21.0852C28.4108 25.4343 24.8525 28.9926 20.5034 28.9926Z" fill="#2E2E2E"/>
</svg>
