<svg width="24" height="37" viewBox="0 0 24 37" fill="none" xmlns="http://www.w3.org/2000/svg">
<path d="M23 24.9232C23.5523 24.9232 24.0043 24.4747 23.9584 23.9244C23.8553 22.6907 23.5618 21.4784 23.0866 20.331C22.4835 18.8751 21.5996 17.5522 20.4853 16.4379C19.371 15.3236 18.0481 14.4397 16.5922 13.8367C15.1363 13.2336 13.5759 12.9232 12 12.9232C10.4241 12.9232 8.86371 13.2336 7.4078 13.8367C5.95189 14.4397 4.62902 15.3236 3.51472 16.4379C2.40042 17.5522 1.5165 18.8751 0.913445 20.331C0.438177 21.4784 0.144685 22.6907 0.0416425 23.9244C-0.00432837 24.4747 0.447715 24.9232 1 24.9232L12 24.9232H23Z" fill="#363636"/>
<circle cx="11.6924" cy="6.15384" r="6.15384" fill="#363636"/>
</svg>
