<svg width="101" height="42" viewBox="0 0 101 42" fill="none" xmlns="http://www.w3.org/2000/svg">
<path d="M6.545 35C6.24167 35 6.04333 34.86 5.95 34.58L0.595 17.395C0.571667 17.3483 0.56 17.2783 0.56 17.185C0.56 16.9283 0.723333 16.8 1.05 16.8H7.07C7.39667 16.8 7.595 16.9517 7.665 17.255L9.52 25.935C9.54333 26.0283 9.57833 26.075 9.625 26.075C9.67167 26.075 9.70667 26.0283 9.73 25.935L11.585 17.255C11.655 16.9517 11.8533 16.8 12.18 16.8L18.2 16.87C18.3867 16.87 18.515 16.9283 18.585 17.045C18.6783 17.1383 18.7017 17.2783 18.655 17.465L13.335 34.58C13.2417 34.86 13.0433 35 12.74 35H6.545ZM29.8832 35.28C27.9232 35.28 26.2082 34.965 24.7382 34.335C23.2682 33.6817 22.1248 32.76 21.3082 31.57C20.5148 30.38 20.1182 29.0033 20.1182 27.44V26.95C20.1182 26.7867 20.1648 26.6583 20.2582 26.565C20.3515 26.4717 20.4798 26.425 20.6432 26.425H26.0682C26.2315 26.425 26.3598 26.4717 26.4532 26.565C26.5465 26.6583 26.5932 26.7867 26.5932 26.95V27.16C26.5932 27.8133 26.9315 28.3967 27.6082 28.91C28.3082 29.4 29.2298 29.645 30.3732 29.645C31.2365 29.645 31.8548 29.47 32.2282 29.12C32.6015 28.7467 32.7882 28.3383 32.7882 27.895C32.7882 27.3817 32.5548 26.9967 32.0882 26.74C31.6215 26.4833 30.7698 26.1683 29.5332 25.795L28.5182 25.515C26.2082 24.815 24.2715 23.8817 22.7082 22.715C21.1448 21.5483 20.3632 19.8567 20.3632 17.64C20.3632 16.17 20.7598 14.875 21.5532 13.755C22.3465 12.6117 23.4315 11.7367 24.8082 11.13C26.2082 10.5233 27.7715 10.22 29.4982 10.22C31.3182 10.22 32.9632 10.5583 34.4332 11.235C35.9265 11.9117 37.0932 12.8683 37.9332 14.105C38.7965 15.3417 39.2282 16.7533 39.2282 18.34V18.655C39.2282 18.8183 39.1815 18.9467 39.0882 19.04C38.9948 19.1333 38.8665 19.18 38.7032 19.18H33.2782C33.1148 19.18 32.9865 19.1333 32.8932 19.04C32.7998 18.9467 32.7532 18.8183 32.7532 18.655V18.62C32.7532 17.92 32.4382 17.29 31.8082 16.73C31.1782 16.1467 30.3265 15.855 29.2532 15.855C28.5065 15.855 27.9115 16.0067 27.4682 16.31C27.0482 16.6133 26.8382 17.0333 26.8382 17.57C26.8382 17.99 26.9898 18.3517 27.2932 18.655C27.6198 18.935 28.1098 19.215 28.7632 19.495C29.4165 19.7517 30.4198 20.09 31.7732 20.51C31.9598 20.58 32.7765 20.8367 34.2232 21.28C35.6932 21.7 36.9182 22.4817 37.8982 23.625C38.8782 24.745 39.3682 26.11 39.3682 27.72C39.3682 29.2833 38.9715 30.6367 38.1782 31.78C37.3848 32.9 36.2765 33.7633 34.8532 34.37C33.4298 34.9767 31.7732 35.28 29.8832 35.28ZM52.3729 16.52C53.5395 16.52 54.5895 16.7767 55.5229 17.29C56.4562 17.8033 57.1912 18.5617 57.7279 19.565C58.2879 20.545 58.5679 21.7117 58.5679 23.065V34.475C58.5679 34.6383 58.5212 34.7667 58.4279 34.86C58.3345 34.9533 58.2062 35 58.0429 35H52.5129C52.3495 35 52.2212 34.9533 52.1279 34.86C52.0345 34.7667 51.9879 34.6383 51.9879 34.475V24.5C51.9879 23.8 51.8012 23.24 51.4279 22.82C51.0779 22.3767 50.6112 22.155 50.0279 22.155C49.4212 22.155 48.9312 22.3767 48.5579 22.82C48.2079 23.24 48.0329 23.8 48.0329 24.5V34.475C48.0329 34.6383 47.9862 34.7667 47.8929 34.86C47.7995 34.9533 47.6712 35 47.5079 35H41.9779C41.8145 35 41.6862 34.9533 41.5929 34.86C41.4995 34.7667 41.4529 34.6383 41.4529 34.475V11.025C41.4529 10.8617 41.4995 10.7333 41.5929 10.64C41.6862 10.5467 41.8145 10.5 41.9779 10.5H47.5079C47.6712 10.5 47.7995 10.5467 47.8929 10.64C47.9862 10.7333 48.0329 10.8617 48.0329 11.025V18.585C48.0329 18.6783 48.0562 18.7367 48.1029 18.76C48.1495 18.7833 48.1845 18.76 48.2079 18.69C49.0945 17.2433 50.4829 16.52 52.3729 16.52ZM99.5999 22.05C99.9499 23.2167 100.125 24.5233 100.125 25.97C100.125 27.65 99.8682 29.1433 99.3549 30.45C98.7949 31.8733 97.9199 33.04 96.7299 33.95C95.5399 34.8367 94.1166 35.28 92.4599 35.28C90.7566 35.28 89.4965 34.7433 88.6799 33.67C88.6332 33.6233 88.5865 33.6117 88.5399 33.635C88.4932 33.635 88.4699 33.67 88.4699 33.74V40.775C88.4699 40.9383 88.4232 41.0667 88.3299 41.16C88.2365 41.2533 88.1082 41.3 87.9449 41.3H82.4149C82.2515 41.3 82.1232 41.2533 82.0299 41.16C81.9365 41.0667 81.8899 40.9383 81.8899 40.775V17.325C81.8899 17.1617 81.9365 17.0333 82.0299 16.94C82.1232 16.8467 82.2515 16.8 82.4149 16.8H87.9449C88.1082 16.8 88.2365 16.8467 88.3299 16.94C88.4232 17.0333 88.4699 17.1617 88.4699 17.325V18.375C88.4699 18.445 88.4932 18.4917 88.5399 18.515C88.5865 18.5383 88.6332 18.515 88.6799 18.445C89.5432 17.1617 90.8966 16.52 92.7399 16.52C94.3032 16.52 95.7032 17.0217 96.9399 18.025C98.1999 19.005 99.0866 20.3467 99.5999 22.05ZM92.7049 28.49C93.0549 27.8133 93.2299 26.9383 93.2299 25.865C93.2299 24.815 93.0549 23.9633 92.7049 23.31C92.2849 22.54 91.6666 22.155 90.8499 22.155C90.0332 22.155 89.4149 22.5517 88.9949 23.345C88.6449 23.9983 88.4699 24.8383 88.4699 25.865C88.4699 26.985 88.6565 27.8833 89.0299 28.56C89.4499 29.2833 90.0566 29.645 90.8499 29.645C91.6899 29.645 92.3082 29.26 92.7049 28.49Z" fill="black"/>
<path d="M77.808 24.3076C77.808 23.3479 77.619 22.3976 77.2517 21.511C76.8845 20.6244 76.3462 19.8188 75.6676 19.1403C74.989 18.4617 74.1835 17.9234 73.2968 17.5561C72.4102 17.1889 71.46 16.9999 70.5003 16.9999C69.5407 16.9999 68.5904 17.1889 67.7038 17.5561C66.8172 17.9234 66.0116 18.4617 65.333 19.1403C64.6544 19.8188 64.1161 20.6244 63.7489 21.511C63.3816 22.3976 63.1926 23.3479 63.1926 24.3076L65.3849 24.3076C65.3849 23.6358 65.5172 22.9706 65.7743 22.35C66.0314 21.7294 66.4082 21.1655 66.8832 20.6904C67.3582 20.2154 67.9221 19.8386 68.5427 19.5816C69.1634 19.3245 69.8286 19.1922 70.5003 19.1922C71.1721 19.1922 71.8373 19.3245 72.4579 19.5816C73.0785 19.8386 73.6424 20.2154 74.1174 20.6904C74.5924 21.1655 74.9692 21.7294 75.2263 22.35C75.4834 22.9706 75.6157 23.6358 75.6157 24.3076L77.808 24.3076Z" fill="#63636D"/>
<path d="M60.9998 27.2857C60.9998 25.431 62.5032 23.9275 64.3579 23.9275L76.6416 23.9275C78.4963 23.9275 79.9998 25.431 79.9998 27.2857C79.9998 31.5656 76.5302 35.0352 72.2502 35.0352L68.7493 35.0352C64.4694 35.0352 60.9998 31.5656 60.9998 27.2857Z" fill="#484851"/>
<ellipse cx="69.5493" cy="28.9702" rx="1.97308" ry="1.97308" fill="#BCBCBC"/>
<ellipse cx="71.9614" cy="31.3813" rx="0.876921" ry="0.876923" fill="#BCBCBC"/>
<circle cx="73.4963" cy="27.8008" r="1.38846" fill="#BCBCBC"/>
<ellipse cx="67.0651" cy="31.8929" rx="1.09615" ry="1.09615" fill="#BCBCBC"/>
</svg>
