<svg width="503" height="478" viewBox="0 0 503 478" fill="none" xmlns="http://www.w3.org/2000/svg">
<path d="M444.976 193.461C444.976 168.056 439.972 142.899 430.25 119.427C420.528 95.9551 406.277 74.6281 388.313 56.6635C370.348 38.699 349.021 24.4487 325.549 14.7264C302.078 5.00403 276.921 -1.11052e-06 251.515 0C226.109 1.11052e-06 200.952 5.00403 177.481 14.7264C154.009 24.4487 132.682 38.699 114.717 56.6636C96.7527 74.6281 82.5024 95.9551 72.7801 119.427C63.0577 142.899 58.0537 168.056 58.0537 193.461L116.092 193.461C116.092 175.677 119.595 158.068 126.401 141.637C133.206 125.207 143.181 110.278 155.757 97.7029C168.332 85.1277 183.261 75.1525 199.691 68.3469C216.121 61.5413 233.731 58.0384 251.515 58.0384C269.299 58.0384 286.909 61.5413 303.339 68.3469C319.769 75.1525 334.698 85.1277 347.273 97.7029C359.849 110.278 369.824 125.207 376.63 141.637C383.435 158.068 386.938 175.677 386.938 193.461H444.976Z" fill="#63636D"/>
<path d="M0 241.4C0 209.367 25.9675 183.4 58 183.4H445C477.033 183.4 503 209.367 503 241.4V312.462C503 403.589 429.127 477.462 338 477.462H165C73.873 477.462 0 403.589 0 312.462V241.4Z" fill="#484851"/>
<ellipse cx="226.337" cy="316.899" rx="52.2346" ry="52.2346" fill="#BCBCBC"/>
<ellipse cx="290.198" cy="380.729" rx="23.2154" ry="23.2154" fill="#BCBCBC"/>
<ellipse cx="330.829" cy="285.939" rx="36.7577" ry="36.7577" fill="#BCBCBC"/>
<ellipse cx="160.573" cy="394.274" rx="29.0192" ry="29.0192" fill="#BCBCBC"/>
</svg>
